<?xml version="1.0" encoding="UTF-8"?>
<!-- Generator: Adobe Illustrator 24.0.0, SVG Export Plug-In . SVG Version: 6.00 Build 0)  -->
<svg xmlns="http://www.w3.org/2000/svg" xmlns:xlink="http://www.w3.org/1999/xlink" version="1.1" id="Capa_1" x="0px" y="0px" viewBox="0 0 178.77 132.69" style="enable-background:new 0 0 178.77 132.69;" xml:space="preserve">
<style type="text/css">
	.st0{fill:#249AC4;}
	.st1{fill:#9A9999;}
	.st2{fill:#FFFFFF;}
</style>
<g>
	<g>
		<path class="st0" d="M43.74,42.47c3.81,4,7.45,7.3,10.4,11.12c1.87,2.43,3.15,5.54,3.89,8.55c0.74,3.02-0.31,3.68-3.34,3.1    c-5.69-1.08-10.49-3.76-14.33-8.07C34.14,50.2,31.4,41.7,29.42,32.79c11.59-0.72,25.8,3.53,34.27,17.44    c2.36-3.53,3.98-8.09,9.22-7.89c4.38,0.16,6.93,3.44,9.64,6.39c-0.27,0.21-0.37,0.37-0.48,0.37c-5.06,0.2-6.56,2.22-5.55,7.28    c0.51,2.56,1.24,5.18,1.12,7.73c-0.25,5.16-3.21,8.9-7.44,11.64c-6.03,3.91-12.88,5.37-20.56,6.65c1.06-0.97,1.68-1.42,2.15-1.98    c2.85-3.4,6.08-6.58,8.39-10.32c2.8-4.56,2.26-9.52-0.55-14.09C55.91,49.97,50.19,46.26,43.74,42.47z"></path>
		<path class="st0" d="M59.54,40.7c-3.49-2.37-6.46-4.32-9.34-6.39c-0.57-0.41-0.96-1.25-1.14-1.96c-1.06-4.11-0.74-8.22,0.11-12.32    c9.6,0.95,17.45,13.66,15,23.71c-1.86-3.87-3.83-7.99-5.83-12.09c-0.15-0.32-0.56-0.51-0.99-0.87    C58.08,34.11,58.77,37.24,59.54,40.7z"></path>
		<path class="st0" d="M54.91,70.42c-5.61,8.02-17.98,9.05-27.55,2.78c4.46,0.31,9.16,0.85,13.86,0.89    C45.93,74.12,50.46,72.94,54.91,70.42z"></path>
	</g>
	<g>
		<g>
			<path class="st1" d="M106.7,71.3c0,0.3-0.08,0.6-0.25,0.89c-1.52,2.88-3.76,6.85-6.7,11.92c-2.02,3.38-4.85,8.14-8.49,14.3     c-2.38,4-4.58,6.92-6.6,8.74c-2.71,2.38-5.81,3.57-9.28,3.57c-1.09,0-2.25-0.12-3.48-0.35c-1.65-0.33-3.1-1.02-4.34-2.06     c-1.24-1.04-2.04-2.24-2.41-3.6c-0.17-0.63-0.25-1.22-0.25-1.79c0-0.69,0.12-1.36,0.35-1.99c0.07-0.17,0.15-0.25,0.25-0.25     c0.07,0,0.1,0.05,0.1,0.15c0,0.07,0,0.12,0,0.15c-0.2,0.6-0.3,1.21-0.3,1.84c0,0.6,0.1,1.21,0.3,1.84     c0.4,1.22,1.18,2.31,2.36,3.25c1.18,0.94,2.47,1.51,3.9,1.71c0.66,0.1,1.36,0.15,2.09,0.15c5.86,0,11.35-3.86,16.48-11.57     c1.32-1.99,2.7-4.32,4.12-7c0.86-1.62,2.15-4.09,3.87-7.4c0.5-1.03,1.29-2.56,2.38-4.62c-0.79,1.03-2.09,2.57-3.87,4.62     c-0.83,0.86-1.57,1.29-2.23,1.29c-0.66,0-0.99-0.41-0.99-1.24c0-0.4,0.1-0.88,0.3-1.44c0.56-1.62,1.49-3.24,2.77-4.87     c1.29-1.62,2.64-2.78,4.06-3.48c0.79-0.4,1.6-0.6,2.43-0.6c0.2,0,0.38,0,0.54-0.01l1.7-2.82c0.23-0.43,0.45-0.64,0.65-0.64     C106.52,70.01,106.7,70.44,106.7,71.3z M103.43,74.23c-0.3-0.03-0.46-0.05-0.5-0.05c-1.13,0-1.95,0.22-2.48,0.65     c-2.18,1.79-3.72,4.5-4.62,8.14c-0.07,0.27-0.1,0.43-0.1,0.5c0,0.27,0.08,0.4,0.25,0.4c0.2,0,0.5-0.21,0.89-0.65     C99.12,80.8,101.31,77.81,103.43,74.23z"></path>
			<path class="st1" d="M122.09,74.48c-1.23,0.46-2.33,0.81-3.33,1.04c-0.93,0.23-1.75,0.22-2.48-0.05     c-0.89-0.33-1.69-0.28-2.38,0.15c-1.92,1.15-3.49,2.83-4.72,5.04c-0.56,1.05-1.42,2.57-2.58,4.55c-0.13,0.23-0.32,0.35-0.55,0.35     c-0.23,0.03-0.42-0.07-0.57-0.3c-0.15-0.23-0.29-0.43-0.42-0.59c-0.1-0.13-0.05-0.33,0.15-0.59c1.59-2.11,2.73-4.28,3.43-6.52     c0.07-0.23,0.1-0.43,0.1-0.59c0-0.59-0.31-0.89-0.94-0.89c-0.13,0-0.3,0.02-0.5,0.05c-0.2,0.07-0.3,0.02-0.3-0.15     c0-0.17,0.1-0.26,0.3-0.3c0.56-0.13,1.39-0.31,2.48-0.55c0.36-0.07,0.61-0.02,0.74,0.12c0.13,0.15,0.15,0.39,0.05,0.72     c-0.23,0.66-0.61,1.79-1.14,3.38c1.72-2.18,3.61-3.95,5.66-5.31c0.5-0.33,0.96-0.4,1.39-0.2c1.03,0.46,2.1,0.7,3.23,0.7     c0.79,0,1.56-0.12,2.28-0.35c0.17-0.07,0.26-0.05,0.3,0.05C122.29,74.33,122.23,74.41,122.09,74.48z"></path>
			<path class="st1" d="M133.17,81.03c0,0.03-0.02,0.07-0.05,0.1c-2.52,3.41-4.9,5.11-7.15,5.11c-1.69,0-2.53-0.89-2.53-2.68     c0-0.79,0.23-1.67,0.69-2.63c-1.16,1.56-2.35,2.68-3.57,3.38c-0.46,0.26-0.89,0.4-1.29,0.4c-0.66,0-1.04-0.43-1.14-1.29     c-0.17-1.52,0.6-3.29,2.28-5.31c1.19-1.42,2.8-2.63,4.82-3.62c0.73-0.36,1.66-0.6,2.78-0.69c0.56-0.83,0.88-1.24,0.94-1.24     c0.96,0,1.41,0.12,1.34,0.35c0,0.07-0.15,0.36-0.45,0.89c0.3,0.03,0.68,0.1,1.14,0.2c0.13,0.07,0.21,0.15,0.25,0.25     c0,0.07-0.05,0.1-0.15,0.1c-0.07,0-0.28-0.03-0.65-0.1c-0.36-0.07-0.61-0.1-0.74-0.1c-2.25,3.97-3.57,6.32-3.97,7.05     c-0.66,1.26-0.99,2.3-0.99,3.13c0,0.5,0.12,0.87,0.37,1.12c0.25,0.25,0.65,0.37,1.22,0.37c0.4,0,0.79-0.08,1.19-0.25     c0.66-0.27,1.56-1.16,2.68-2.68c1.03-1.36,1.97-2.04,2.83-2.04C133.12,80.83,133.17,80.9,133.17,81.03z M127.8,74.23h-0.35     c-1.53,0.07-3.2,1.16-5,3.28c-1.8,2.12-2.7,3.94-2.7,5.46c0,0.5,0.2,0.74,0.6,0.74c0.96,0,2.43-1.49,4.4-4.47     C125.76,77.72,126.77,76.05,127.8,74.23z"></path>
			<path class="st1" d="M145.38,77.61c0,0.07-0.05,0.17-0.15,0.3c-2.75,3.34-5.3,5.49-7.65,6.45c-1.06,0.43-1.95,0.65-2.68,0.65     c-1.75,0-2.63-0.79-2.63-2.38c0-0.56,0.15-1.21,0.45-1.94c1.36-3.34,3.56-5.66,6.6-6.95c0.4-0.17,0.71-0.25,0.94-0.25     c0.76,0,1.34,0.45,1.74,1.34c0.07,0.17,0.1,0.28,0.1,0.35c0,0.17-0.08,0.32-0.25,0.45c-0.03,0.03-0.22,0.22-0.57,0.55     c-0.35,0.33-0.57,0.5-0.67,0.5s-0.15-0.07-0.15-0.2v-0.1c0.03-0.17,0.05-0.3,0.05-0.4c0-0.86-0.53-1.29-1.59-1.29     c-1.23,0-2.38,1.09-3.48,3.28c-0.6,1.19-0.96,2.38-1.09,3.57v0.55c0,1.39,0.61,2.09,1.84,2.09c1.29,0,2.91-0.83,4.87-2.48     c1.42-1.19,2.73-2.53,3.92-4.02c0.07-0.1,0.15-0.15,0.25-0.15C145.33,77.51,145.38,77.54,145.38,77.61z"></path>
			<path class="st1" d="M159.48,75.57c-2.81,0.7-6.54,1.69-11.17,2.98h-0.05c-0.23,0.13-0.43,0.23-0.6,0.3     c-0.3,0.13-0.46,0.13-0.5,0c0-0.13,0.12-0.26,0.35-0.4c1.46-0.76,2.25-1.9,2.38-3.43c0.03-0.4-0.17-0.6-0.6-0.6     c-0.33,0-0.61,0.15-0.84,0.45c-1.26,1.52-2.28,3.43-3.08,5.71c-0.33,0.96-0.5,1.82-0.5,2.58c0,1.36,0.5,2.04,1.49,2.04     c0.79,0,1.77-0.51,2.93-1.54c0.1-0.07,0.18-0.07,0.25,0c0.07,0.07,0.05,0.15-0.05,0.24c-1.23,1.1-2.42,1.64-3.58,1.64     c-0.6,0-1.16-0.13-1.69-0.4c-0.83-0.43-1.24-1.19-1.24-2.27c0-0.43,0.13-1.07,0.4-1.93c0.43-1.42,1.16-2.84,2.18-4.28     c1.03-1.43,2.1-2.27,3.23-2.5c1.03-0.2,1.7-0.38,2.04-0.54c0.53-0.26,0.79-0.05,0.79,0.65c0,1.39-0.58,2.47-1.74,3.23l-0.45,0.3     c2.25-0.53,5.58-1.41,9.98-2.63c0.17-0.07,0.25-0.03,0.25,0.1C159.71,75.41,159.65,75.51,159.48,75.57z"></path>
		</g>
	</g>
	<g>
		<path class="st1" d="M100.62,96.48l0.76-5.33h0.09l2.17,4.38l2.15-4.38h0.09l0.77,5.33h-0.52l-0.53-3.81l-1.89,3.81h-0.14    l-1.91-3.84l-0.52,3.84H100.62z"></path>
		<path class="st1" d="M110.69,91.14h3.06v0.52h-2.52v1.67h2.5v0.52h-2.5v2.1h2.5v0.52h-3.04V91.14z"></path>
		<path class="st1" d="M117.66,96.48v-5.33h1.11c0.8,0,1.38,0.06,1.74,0.19c0.52,0.18,0.92,0.5,1.21,0.94    c0.29,0.45,0.44,0.98,0.44,1.6c0,0.53-0.12,1-0.35,1.41c-0.23,0.41-0.53,0.71-0.9,0.9c-0.37,0.19-0.89,0.29-1.55,0.29H117.66z     M118.17,95.97h0.62c0.74,0,1.25-0.05,1.53-0.14c0.4-0.13,0.72-0.37,0.95-0.7c0.23-0.34,0.34-0.75,0.34-1.24    c0-0.51-0.12-0.95-0.37-1.32c-0.25-0.36-0.6-0.61-1.04-0.75c-0.33-0.1-0.88-0.15-1.65-0.15h-0.38V95.97z"></path>
		<path class="st1" d="M125.63,95.48l0.45-0.27c0.32,0.59,0.69,0.88,1.11,0.88c0.18,0,0.35-0.04,0.5-0.12    c0.16-0.08,0.28-0.2,0.36-0.34c0.08-0.14,0.12-0.29,0.12-0.45c0-0.18-0.06-0.35-0.18-0.53c-0.17-0.24-0.47-0.52-0.91-0.86    c-0.45-0.34-0.72-0.58-0.83-0.73c-0.19-0.25-0.28-0.52-0.28-0.82c0-0.23,0.06-0.44,0.17-0.63c0.11-0.19,0.27-0.34,0.47-0.45    c0.2-0.11,0.42-0.17,0.66-0.17c0.25,0,0.49,0.06,0.71,0.19c0.22,0.12,0.45,0.35,0.69,0.69l-0.43,0.33    c-0.2-0.27-0.37-0.44-0.51-0.53c-0.14-0.08-0.3-0.13-0.46-0.13c-0.21,0-0.39,0.07-0.53,0.2c-0.14,0.13-0.21,0.29-0.21,0.48    c0,0.12,0.02,0.23,0.07,0.34c0.05,0.11,0.14,0.23,0.26,0.36c0.07,0.07,0.3,0.25,0.69,0.53c0.46,0.34,0.78,0.64,0.95,0.91    c0.17,0.27,0.26,0.53,0.26,0.8c0,0.39-0.15,0.72-0.44,1.01s-0.65,0.43-1.07,0.43c-0.32,0-0.62-0.09-0.88-0.26    S125.85,95.89,125.63,95.48z"></path>
		<path class="st1" d="M132.87,91.14h1.06c0.61,0,1.02,0.03,1.23,0.08c0.3,0.07,0.55,0.23,0.75,0.46c0.19,0.23,0.29,0.53,0.29,0.88    c0,0.36-0.09,0.65-0.28,0.88c-0.19,0.23-0.45,0.39-0.78,0.47c-0.24,0.06-0.69,0.09-1.36,0.09h-0.38v2.48h-0.53V91.14z     M133.4,91.67v1.81l0.9,0.01c0.36,0,0.63-0.03,0.8-0.1c0.17-0.07,0.3-0.17,0.4-0.32c0.1-0.15,0.15-0.31,0.15-0.5    c0-0.18-0.05-0.34-0.15-0.49c-0.1-0.15-0.22-0.25-0.38-0.32c-0.16-0.06-0.42-0.09-0.78-0.09H133.4z"></path>
		<path class="st1" d="M142.44,91.14l2.49,5.33h-0.58l-0.84-1.76h-2.3l-0.83,1.76h-0.59l2.52-5.33H142.44z M142.37,92.28l-0.91,1.93    h1.82L142.37,92.28z"></path>
	</g>
	<path class="st1" d="M90.28,63.03c-2.51-2.85-6.32-4.81-11.39-5.91c-0.04,0.26-0.11,0.51-0.2,0.76c1.68,0.46,3.22,1.06,4.61,1.82   c4.35,2.4,6.54,6.06,6.59,10.98c0,3.99-1.1,7.46-3.29,10.41c-2.2,2.95-5.2,5.2-9.02,6.75c-3.11,1.24-7.01,1.88-11.71,1.93h-0.33   c-6.25,0-11.56-0.98-15.9-2.93l-0.93-0.4c0.92-0.84,1.78-1.75,2.59-2.73c-0.35,0.02-0.67-0.03-0.96-0.14   c-0.79,1.02-1.56,1.87-2.3,2.54c-2.31-1.06-4.79-2.4-7.45-3.99c-0.62-0.35-3.11-1.86-7.45-4.52c-0.31-0.22-0.67-0.33-1.06-0.33   h-0.13c-0.58,0-1.25,0.23-2.03,0.7c-0.78,0.47-1.21,1.03-1.3,1.7c-0.13,0.89-0.2,1.6-0.2,2.13c0,5.01,2.46,7.87,7.39,8.58   c0.89,0.13,1.86,0.2,2.93,0.2h0.07c3.02,0,5.74-0.89,8.18-2.66c5.1,1.73,10.67,2.62,16.7,2.66h0.4c5.15,0,9.8-0.64,13.97-1.93   c4.83-1.46,8.74-4.08,11.71-7.85c2.35-2.93,3.53-6.17,3.53-9.71C93.27,67.93,92.28,65.24,90.28,63.03z M39.78,89.77   c-1.15,0-2.31-0.2-3.46-0.6c-4.84-1.7-7.25-4.26-7.25-7.7c0-1.21,0.24-1.81,0.73-1.81c0.13,0,0.33,0.07,0.6,0.2   c1.11,0.49,3.7,1.85,7.79,4.09c3.19,1.74,5.86,2.99,7.98,3.75C44.12,89.08,41.99,89.77,39.78,89.77z"></path>
</g>
</svg>
