<?xml version="1.0" encoding="UTF-8"?>
<!-- Generator: Adobe Illustrator 24.0.0, SVG Export Plug-In . SVG Version: 6.00 Build 0)  -->
<svg xmlns="http://www.w3.org/2000/svg" xmlns:xlink="http://www.w3.org/1999/xlink" version="1.1" id="Capa_1" x="0px" y="0px" viewBox="0 0 41.22 43.75" style="enable-background:new 0 0 41.22 43.75;" xml:space="preserve">
<style type="text/css">
	.st0{fill:#249AC4;}
	.st1{fill:#9A9999;}
	.st2{fill:#FFFFFF;}
</style>
<g>
	<g>
		<path class="st0" d="M12.66,14.84c1.54,1.62,3.02,2.96,4.21,4.51c0.76,0.98,1.28,2.25,1.58,3.46c0.3,1.22-0.13,1.49-1.35,1.26    c-2.3-0.44-4.25-1.52-5.81-3.27c-2.52-2.82-3.62-6.27-4.43-9.87c4.69-0.29,10.45,1.43,13.88,7.06c0.96-1.43,1.61-3.28,3.74-3.2    c1.78,0.07,2.81,1.39,3.9,2.59c-0.11,0.09-0.15,0.15-0.2,0.15c-2.05,0.08-2.66,0.9-2.25,2.95c0.21,1.04,0.5,2.1,0.45,3.13    c-0.1,2.09-1.3,3.61-3.01,4.72c-2.44,1.59-5.22,2.18-8.33,2.69c0.43-0.39,0.68-0.57,0.87-0.8c1.15-1.38,2.46-2.66,3.4-4.18    c1.14-1.85,0.92-3.86-0.22-5.71C17.58,17.87,15.27,16.37,12.66,14.84z"></path>
		<path class="st0" d="M19.05,14.12c-1.41-0.96-2.61-1.75-3.78-2.59c-0.23-0.16-0.39-0.5-0.46-0.79c-0.43-1.66-0.3-3.33,0.04-4.99    c3.89,0.38,7.07,5.53,6.08,9.61c-0.75-1.57-1.55-3.24-2.36-4.9c-0.06-0.13-0.23-0.2-0.4-0.35C18.46,11.45,18.74,12.72,19.05,14.12    z"></path>
		<path class="st0" d="M17.18,26.16c-2.27,3.25-7.28,3.67-11.16,1.13c1.81,0.12,3.71,0.35,5.62,0.36    C13.54,27.66,15.38,27.18,17.18,26.16z"></path>
	</g>
	<path class="st1" d="M31.51,23.16c-1.02-1.15-2.56-1.95-4.61-2.39c-0.02,0.11-0.04,0.21-0.08,0.31c0.68,0.19,1.31,0.43,1.87,0.74   c1.76,0.97,2.65,2.45,2.67,4.45c0,1.62-0.44,3.02-1.33,4.22c-0.89,1.2-2.11,2.11-3.65,2.74c-1.26,0.5-2.84,0.76-4.74,0.78h-0.13   c-2.53,0-4.68-0.4-6.44-1.19l-0.38-0.16c0.37-0.34,0.72-0.71,1.05-1.11c-0.14,0.01-0.27-0.01-0.39-0.06   c-0.32,0.41-0.63,0.76-0.93,1.03c-0.93-0.43-1.94-0.97-3.02-1.62c-0.25-0.14-1.26-0.75-3.02-1.83c-0.13-0.09-0.27-0.13-0.43-0.13   H7.87c-0.23,0-0.51,0.09-0.82,0.28c-0.31,0.19-0.49,0.42-0.53,0.69c-0.05,0.36-0.08,0.65-0.08,0.86c0,2.03,1,3.19,2.99,3.48   c0.36,0.05,0.75,0.08,1.19,0.08h0.03c1.22,0,2.33-0.36,3.32-1.08c2.07,0.7,4.32,1.06,6.77,1.08h0.16c2.08,0,3.97-0.26,5.66-0.78   c1.96-0.59,3.54-1.65,4.74-3.18c0.95-1.19,1.43-2.5,1.43-3.94C32.72,25.15,32.32,24.06,31.51,23.16z M11.05,34   c-0.47,0-0.93-0.08-1.4-0.24c-1.96-0.69-2.94-1.73-2.94-3.12c0-0.49,0.1-0.73,0.3-0.73c0.05,0,0.13,0.03,0.24,0.08   c0.45,0.2,1.5,0.75,3.15,1.66c1.29,0.71,2.37,1.21,3.23,1.52C12.81,33.72,11.95,34,11.05,34z"></path>
</g>
</svg>
